<svg xmlns="http://www.w3.org/2000/svg" xmlns:xlink="http://www.w3.org/1999/xlink" width="7968" zoomAndPan="magnify" viewBox="0 0 5976 2304.00001" height="3072" preserveAspectRatio="xMidYMid meet" version="1.0"><defs><clipPath id="78404012b7"><path d="M 2093.742188 0 L 3622.328125 0 L 3622.328125 2188 L 2093.742188 2188 Z M 2093.742188 0 " clip-rule="nonzero"/></clipPath><clipPath id="acd6953354"><path d="M 2106.113281 11 L 3609.960938 11 L 3609.960938 2163 L 2106.113281 2163 Z M 2106.113281 11 " clip-rule="nonzero"/></clipPath><clipPath id="d6863b07aa"><path d="M 2402.300781 342.960938 L 3313.675781 342.960938 L 3313.675781 1254.335938 L 2402.300781 1254.335938 Z M 2402.300781 342.960938 " clip-rule="nonzero"/></clipPath><clipPath id="2663faf9ed"><path d="M 2857.988281 342.960938 C 2606.316406 342.960938 2402.300781 546.980469 2402.300781 798.648438 C 2402.300781 1050.316406 2606.316406 1254.335938 2857.988281 1254.335938 C 3109.65625 1254.335938 3313.675781 1050.316406 3313.675781 798.648438 C 3313.675781 546.980469 3109.65625 342.960938 2857.988281 342.960938 Z M 2857.988281 342.960938 " clip-rule="nonzero"/></clipPath></defs><g clip-path="url(#78404012b7)"><path fill="#040606" d="M 2857.996094 0.734375 C 3280.078125 0.734375 3622.25 342.90625 3622.25 764.996094 C 3622.25 911.859375 3580.796875 1049.003906 3508.992188 1165.472656 C 3422.863281 1308.136719 3336.726562 1450.828125 3250.601562 1593.515625 C 3145.699219 1764.023438 3060.820312 1902.011719 2955.933594 2072.527344 C 2863.457031 2222.871094 2857.207031 2226.566406 2764.246094 2075.449219 C 2659.882812 1905.785156 2572.140625 1763.171875 2467.78125 1593.515625 C 2381.84375 1452.433594 2295.933594 1311.355469 2209.996094 1170.285156 C 2136.371094 1052.796875 2093.742188 913.882812 2093.742188 764.996094 C 2093.742188 342.90625 2435.914062 0.734375 2857.996094 0.734375 Z M 2857.996094 383.902344 C 3047.21875 383.902344 3200.617188 537.300781 3200.617188 726.515625 C 3200.617188 915.746094 3047.226562 1069.128906 2857.996094 1069.128906 C 2668.765625 1069.128906 2515.375 915.738281 2515.375 726.515625 C 2515.382812 537.300781 2668.773438 383.902344 2857.996094 383.902344 Z M 2857.996094 383.902344 " fill-opacity="1" fill-rule="evenodd"/></g><g clip-path="url(#acd6953354)"><path fill="#ffd425" d="M 2858 11.558594 C 3273.25 11.558594 3609.886719 348.191406 3609.886719 763.449219 C 3609.886719 907.9375 3569.101562 1042.863281 3498.460938 1157.445312 C 3413.722656 1297.800781 3328.980469 1438.183594 3244.25 1578.5625 C 3141.046875 1746.308594 3057.542969 1882.0625 2954.351562 2049.816406 C 2863.375 2197.730469 2857.222656 2201.367188 2765.765625 2052.691406 C 2663.089844 1885.777344 2576.769531 1745.46875 2474.101562 1578.5625 C 2389.554688 1439.761719 2305.035156 1300.96875 2220.484375 1162.179688 C 2148.054688 1046.59375 2106.113281 909.925781 2106.113281 763.449219 C 2106.113281 348.191406 2442.75 11.558594 2858 11.558594 Z M 2858 388.523438 C 3044.160156 388.523438 3195.074219 539.441406 3195.074219 725.59375 C 3195.074219 911.761719 3044.164062 1062.664062 2858 1062.664062 C 2671.832031 1062.664062 2520.921875 911.753906 2520.921875 725.59375 C 2520.929688 539.441406 2671.839844 388.523438 2858 388.523438 Z M 2858 388.523438 " fill-opacity="1" fill-rule="evenodd"/></g><g clip-path="url(#d6863b07aa)"><g clip-path="url(#2663faf9ed)"><path fill="#000000" d="M 2402.300781 342.960938 L 3313.675781 342.960938 L 3313.675781 1254.335938 L 2402.300781 1254.335938 Z M 2402.300781 342.960938 " fill-opacity="1" fill-rule="nonzero"/></g></g></svg>